<svg class="svg-icon" viewBox="0 0 20 20">
							<path fill="none" d="M10,2.262c-3.486,0-6.322,2.837-6.322,6.322c0,2.129,1.105,4.126,2.905,5.291l0.009,3.396c0.002,0.168,0.093,0.326,0.24,0.406c0.072,0.041,0.149,0.061,0.228,0.061c0.086,0,0.171-0.023,0.246-0.07l6.338-3.922c0.037-0.021,0.069-0.049,0.098-0.08c1.618-1.193,2.581-3.084,2.581-5.082C16.322,5.099,13.485,2.262,10,2.262z M13.109,12.969c-0.016,0.01-0.03,0.023-0.044,0.037l-5.542,3.426l-0.006-2.594c0.012-0.027,0.023-0.057,0.03-0.086c0.05-0.203-0.041-0.414-0.221-0.52c-1.675-0.963-2.715-2.746-2.715-4.648c0-2.971,2.417-5.387,5.388-5.387c2.971,0,5.387,2.417,5.387,5.387C15.387,10.316,14.536,11.955,13.109,12.969z"></path>
						</svg>
