<svg class="svg-icon" viewBox="0 0 512 512" fill="currentColor" xmlns="http://www.w3.org/2000/svg">
<path d="M190.585 184.597L175.922 199.248L115.313 138.65V359.199C115.313 376.331 129.267 390.28 146.407 390.28H363V411H146.407C117.822 411 94.5828 387.757 94.5828 359.198V142.671L38.6565 198.573L24 183.923L106.958 101L190.585 184.597Z" fill="currentColor"/>
<path d="M321.415 327.403L336.078 312.752L396.687 373.35V152.801C396.687 135.669 382.733 121.72 365.593 121.72L149 121.72V101L365.593 101C394.178 101 417.417 124.243 417.417 152.802V369.329L473.344 313.427L488 328.077L405.042 411L321.415 327.403Z" fill="currentColor"/>
</svg>
